<?xml version="1.0" encoding="UTF-8"?>
<svg version="1.1" viewBox="0 0 2048 320" width="1280" height="1280" xmlns="http://www.w3.org/2000/svg">
<path transform="translate(0)" d="m0 0h2048v320h-2048z" fill="#FEFEFE"/>
<path transform="translate(554,9)" d="m0 0 7 1 5 6 2 4 6-8 6-3 8 1 7 4 3 5v3l5-5 6-4h11l8 7 4 4 2-4 8-4h14l10 3 8 6 2 5 10-10 5-1 3 3v18l7-1 11 6 8 8 4 8 1 12h7l7 3 3 3 2 9-6 8-4 3-4 2 4 2v2l3-3 4-6 7-4-1-4v-9l5-9 4-5 6-9 5-2h3l-2-3v-13l6-8 7-4 11 2v-6l7-8 2-1h10l6 4 3 3v2h3l2-4 5-4 7-3h16l10 5 5 4 3 3 2-6 6-5 2-1h11l7 4 4 6 1 6h2l2-6 6-3 4 1 5 5 1 9 6-5 3-1h7l10 5 5 8v9l-2 5 10-1 8 5 7 8 3 7v11l-3 7h11l4 2-1-2v-10l5-9 5-4 8-5 2-5v-14l4-10 5-4 2-1h8v-7l5-8 7 1 3 4 2 4 5-5 10-4 5-1h9l13 4 9 6 4-8 4-2h6l6 5 1 4h2l2-5 6-5 2-1h7l8 5 3 7 8-6 13-4h7l13 4 7 6 1 7 9 1 6 5-1 4-4 3h-3l5 5 4 6v9l-5 10-6 4-9 1-1 13 1 1v14l-1 2-1 16 9 4 4 4 2 7h2l2-5 3-1-1-2-8-4-1-1v-5l5-4 6-2-6-8-1-2v-16l6-9 4-3h5l-2-5v-7l2-5 3-3 4-11 5-6 6-3v-13l5-5 2-1h7l6 5 2 2 6-8 7-4h13l9 6 2 4 5-5 5-4 9-1 8 4 4 4h2l4-6 8-4h11l8 5 4 6 8-6 9-3h15l12 5 6 7v5h11l8 4 1 8-5 4-5 1v3l4 1 4 8v9l-6 7-11 5-1 10-2 2v15l-5 7-6 3h-6v8h9l7 5 4 7 1 11-6 9 1 4v10l-5 8-5 3-5 1-1 7-5 6 2 5v8l-6 9-8 4h-6l-5-2-4 9-7 6-4 2h-12l-9-5-4-5-2-1-3 13-6 8-5 3h-6l-1 24-6 11-8 4h-5v6l-6 8-9 4h-14l-7-4-5-4-2 5-5 5h-7l-6-5-4-10v-14l-9-2-6-7-1-3v-9l4-7 5-3-9-3h-2l-4 5-5 3h-10l2 10 2 11-4 9-7 8-6 2-7-1v8l-6 8-4 2-9-1-7-8-2-1-2 4-4 4-9 3-8-1-6-3-5-4-1-2h-2l-4 5-8 3-10-2-6-6v-4h-2l-1 6-8 7-9 2-6-1-7-4-5-6v-2h-2l-2 4-3 2h-11l-8-6-6-9-4-16v-17h-6l-7-5-4-8v-13l5-9 5-2-5-5-4-6-1-7-6 11-7 5-4 2 2 5v10l-5 6-5 9-7 6-4 2h-3l5 7v9l-3 3h-6l-7-4h-2l-5 9-8 6-12 6-13 2-8-1-4-1-2 7-6 5h-10l-6-5-1-4h-2l-2 5-8 5-6 2h-18l-10-4-6-6-4 1-5 4-5 2h-22l-10-5-6-7-2-8-9-2-6-5-3-9 2-8 5-6-1-3-3-1-3 9-7 6-5 2 4 6v6l-6 8-4 9-5 5-9 5-4 1h-13l-12-5-5-5v-4l-10 5h-9l-8-4-7-8-1-2v-6l1-2-9 1-9-6-3-5-1-10 3-5v-2l-7-1-6-5-3-1 2 9-5 5h-8l3 5v9l-5 6-7 3 3 6-2 7-3 3h-9l-5-3-3 8-8 6-3 1h-12l-11-6-7-7-7-14-2-8v-14l-12-2-7-6v-4l-6 5h-11l3 18-2 10-6 8-4 3-9 1-3-1 1 7-6 9-5 2h-7l-7-6-1-4-8 8-8 3h-8l-8-4-8-7-2 5-7 4h-9l-6-4-4-4-1-3-2 5-5 6-9 3-10-1-8-6-4-5-6 5-2 1h-7l-9-6-7-11-4-16-1-15-7-2-7-8-2-5v-10l3-8 6-7-6-5-2-4v-11l7-10-5-1-5-5 1-8 5-5 3-2-5-4-3-6 1-9 4-5 5-2v-2l-4-2-4-5-3-6v-13l5-10 6-4 3-1-2-4-1-1v-15l5-8 5-4 4-1 4-5 1-10v-8l5-10 5-4h9v-7l3-6 3-3 7 2 3 5v3l6-5 9-4 5-1h12l12 4 9 5 2-5 4-4h9l6 7 2 1 2-5 6-5h10l8 7 3 4 6-5 11-4h11l12 4 7 6v6l10 2 6 5-1 4-4 3h-3l7 8 1 1v14l-6 9-7 3h-6v6l-1 2v7l1 2v8l-1 2-1 13-1 6 7 2 7 6 2 3 4-2v-3l-5-2-1-6 5-4 1-2-5-2-1-8 5-4h3l-6-6v-10l5-5 3-1h7l-3-6v-7l4-6 6-1-3-6 1-7 6-5 7-2-1-4v-8l4-5 2-1h7l7 4 3-11 4-5z" fill="#8AD85F"/>
<path transform="translate(554,9)" d="m0 0 7 1 5 6 2 4 6-8 6-3 8 1 7 4 3 5v3l5-5 6-4h11l8 7 4 4 2-4 8-4h14l10 3 8 6 2 5 10-10 5-1 3 3v18l7-1 11 6 8 8 4 8 1 12h7l7 3 3 3 2 9-6 8-4 3-4 2 4 2v2l3-3 4-6 7-4-1-4v-9l5-9 3-2 1 1 2 15 3 6 6 5v3l-10 5-1 2v6l4 4 6 3-1 3-10 5-1 2v7l4 5 10 3v2l-6 4-4 5-2 5v9l4 9 7 5-1 3-6 3h-2l1 7 6 4-3 3-5 4-2 6 11 3v3l-7 4-3 6v7l2 7 15 6 4 11 8 5 6 2h18l10-5 3-4h3l4 6 8 4 3 1h19l10-4 3-1 2-5 1-2h2l4 7 5 3h6l5-3 4-11 8 3h12l13-5 10-6 4-6 2-6 5 2 10 5-4 9-7 8-6 3h-3l5 7v9l-3 3h-6l-7-4h-2l-5 9-8 6-12 6-13 2-8-1-4-1-2 7-6 5h-10l-6-5-1-4h-2l-2 5-8 5-6 2h-18l-10-4-6-6-4 1-5 4-5 2h-22l-10-5-6-7-2-8-9-2-6-5-3-9 2-8 5-6-1-3-3-1-3 9-7 6-5 2 4 6v6l-6 8-4 9-5 5-9 5-4 1h-13l-12-5-5-5v-4l-10 5h-9l-8-4-7-8-1-2v-6l1-2-9 1-9-6-3-5-1-10 3-5v-2l-7-1-6-5-3-1 2 9-5 5h-8l3 5v9l-5 6-7 3 3 6-2 7-3 3h-9l-5-3-3 8-8 6-3 1h-12l-11-6-7-7-7-14-2-8v-14l-12-2-7-6v-4l-6 5h-11l3 18-2 10-6 8-4 3-9 1-3-1 1 7-6 9-5 2h-7l-7-6-1-4-8 8-8 3h-8l-8-4-8-7-2 5-7 4h-9l-6-4-4-4-1-3-2 5-5 6-9 3-10-1-8-6-4-5-6 5-2 1h-7l-9-6-7-11-4-16-1-15-7-2-7-8-2-5v-10l3-8 6-7-6-5-2-4v-11l7-10-5-1-5-5 1-8 5-5 3-2-5-4-3-6 1-9 4-5 5-2v-2l-4-2-4-5-3-6v-13l5-10 6-4 3-1-2-4-1-1v-15l5-8 5-4 4-1 4-5 1-10v-8l5-10 5-4h9v-7l3-6 3-3 7 2 3 5v3l6-5 9-4 5-1h12l12 4 9 5 2-5 4-4h9l6 7 2 1 2-5 6-5h10l8 7 3 4 6-5 11-4h11l12 4 7 6v6l10 2 6 5-1 4-4 3h-3l7 8 1 1v14l-6 9-7 3h-6v6l-1 2v7l1 2v8l-1 2-1 13-1 6 7 2 7 6 2 3 4-2v-3l-5-2-1-6 5-4 1-2-5-2-1-8 5-4h3l-6-6v-10l5-5 3-1h7l-3-6v-7l4-6 6-1-3-6 1-7 6-5 7-2-1-4v-8l4-5 2-1h7l7 4 3-11 4-5z" fill="#8AD85F"/>
<path transform="translate(1823,10)" d="m0 0h12l7 4 5 6 3 8 2-1h9l10 6 7 9 3 7v10l-1 4 10-4 5-4 7-1-2-4-3-5 1-5 1-1h9l9 4 2-9 9-7 9-4h12l6 3 2-5 5-5 8-4 3-1h10l12 4 6 5 7 14 3 4 1 8-3 6-4 4-5 2h-6l2 5v8l-4 7v10l-6 7-9 3v12l-3 5-6 3-5 1-2 14-5 6 1 4v12l-2 5h7l6 4 2 3v8l-4 6h7l6 4 6 7 2 5v7l-1 5h8l6 4 1 2v8l-2 4 8-1 6 3 4 5v8l-7 10-3 9-3 5-6 6-1 10-7 10-3 10-8 8-3 1h-7l-8-5-4-4-2 5-4 5-2 1h-6l-6-4-4-8-1-5-5 2h-8l-10-3-11-8-4-7-1-6-6 3h-9l-3-3 1-7 3-5-14 1-9 16-6 7-9 5h-11v7l-6 8-5 3h-10l-8-6-2-4-2-1-2 5-8 5-3 1h-7l-9-4-5-4-3 6h-4l-1-2v-8l3-11v-8l-5-7v-10l5-5 3-1h7l-2-4v-15l9-16 5-4h8l-2-5v-13l6-12 6-5 6-2-7-10-3-9v-9l3-8-9-1-7-8v-10l1-4-9-1-6-5-2-6v-6l2-4-17 3-2 1 6 5 2 10-4 7-3 3v2l6 4 4 6 1 3v11l-5 10-5 4-1 2 6 2 3 4v5l-5 5-6 1 7 11 2 5v17l-2 8-5 8-4 2h-3v12l-5 8-4 12-5 6-6 2 1 2v9l-7 8-4 2h-9l-5-3-3 6-7 6-13 3-10-1-9-5-5-6-1-7-7-2-7-8-3-8-2-12-5 4-5 2h-3l3 6v8l-5 8-8 7h-15l-4 8-11 5h-10l-9-4-4-4-4 2-9 6-3 1h-15l-9-5-4-5-1-2-4 6-7 5-3 1h-14l-10-6-3-4v-2h-2v6l-4 5-5 1-7-5-6-12-3-11-2-32h-10l-6-3-1-2v-6l7-4-7-6-2-11 4-7 5-3h2l-3-3-5-4-2-6 2-7 8-7-5-4-3-6v-11l4-9 5-4-6-2-4-4v-7l5-6h3v-2l-5-2-5-6v-12l9-7 7-3-3-3v-13l10-16 3-3 9-2-3-10 2-10 4-6 5-4h9l3-9 7-6 2-1h12l8 5 4 5 1 2 4-1h10l7 6 1 3v8l-1 3 8 2 5 5 4 8v10l-5 10-5 4h-2l5 5 4 5 2 5v10l-4 10-5 5 6 3 3 4-2 4-5 5 5 2 3 4v6l-5 5-5 1v2l5 1 7 8 3 10v4h13l9 3 9 9 5-5 10-5 3-1h13l11 4 7 8v7h2l1-7 5-8h2l-3-3-8-5-1-1-1-9 5-5 4-3 3-1-7-14v-22l4-10 3-5-6-1-6-5 1-7 9-5h9l-2-3v-12l5-8-2-4 1-6 5-4 12-3-2-9 3-9 6-5 6-3 8 1 4 2 2-10 6-6 3-1h8l6 4 5 10v3l6-2h7l6 3 5 6v11l-4 7 8 4 6 8v11l-4 6-4 4 4 1 4-6 4-3h2v-10l3-7 4-4 2-1 2-10 9-9 1-11 4-6 3-2h8l8 7 2-2 3-6 7-6z" fill="#8AD85F"/>
<path transform="translate(415,11)" d="m0 0h10l8 7 3 4 6-5 11-4h11l12 4 7 6v6l10 2 6 5-1 4-4 3h-3l7 8 1 1v14l-6 9-7 3h-6v6l-1 2v7l1 2v8l-1 2-1 13-1 6 7 2 7 6 3 13 10 4v2l-7 4-3 6v14l5 8 6 3-2 4h-2l-2 5-3 8v25l6 10 2 3-11 5h-2l-1 3-6 5h-11l3 18-2 10-6 8-4 3-9 1-3-1 1 7-6 9-5 2h-7l-7-6-1-4-8 8-8 3h-8l-8-4-8-7-2 5-7 4h-9l-6-4-4-4-1-3-2 5-5 6-9 3-10-1-8-6-4-5-6 5-2 1h-7l-9-6-7-11-4-16-1-15-7-2-7-8-2-5v-10l3-8 6-7-6-5-2-4v-11l7-10-5-1-5-5 1-8 5-5 3-2-5-4-3-6 1-9 4-5 5-2v-2l-4-2-4-5-3-6v-13l5-10 6-4 3-1-2-4-1-1v-15l5-8 5-4 4-1 4-5 1-10v-8l5-10 5-4h9v-7l3-6 3-3 7 2 3 5v3l6-5 9-4 5-1h12l12 4 9 5 2-5 4-4h9l6 7 2 1 2-5z" fill="#8AD85F"/>
<path transform="translate(837,11)" d="m0 0h16l10 5 5 4 3 3 2-6 6-5 2-1h11l7 4 4 6 1 6h2l2-6 6-3 4 1 5 5 1 9 6-5 3-1h7l10 5 5 8v9l-2 5 10-1 8 5 7 8 3 7v11l-3 7h11l6 4 2 4-8 5-2 3 1 5 5 7 2 8v14l-5 8-6 7 7 5 3 7-11 8 1 5 3 6 4 2-1 4-6 10-6 11-7 5-4 2 2 5v10l-3 3-5-1-11-6-1 6-4 6-9 6-12 5-3 1h-12l-7-3-4 10-6 4h-6l-6-4-3-4v-3h-2l-2 5-4 4-10 4h-19l-9-4-5-5-1-3h-3l-2 4-8 5-3 1h-18l-12-5-4-5-3-9-11-4-4-4-2-5v-7l4-7 7-4-3-2-8-3 1-6 6-5 2-2-6-4-1-5 4-4 5-2v-2l-7-5-4-9v-9l4-8 7-6h2v-2l-7-1-5-3-3-4v-7l5-5 7-3v-2l-8-4-2-3v-6l5-5 4-2h3v-3l-4-2-5-6-2-7-1-13 6-10 6-3h3l-2-3v-13l6-8 7-4 11 2v-6l7-8 2-1h10l6 4 3 3v2h3l2-4 5-4z" fill="#8AD85F"/>
<path transform="translate(72,13)" d="m0 0h9l6 3 5 6 1 5 5-4 7-1 9 4 5 6 1 10h6l8 7 4 6 3 9v7l-4 11-5 2 1 2 5 3 5 6 5 11 1 4v20l-1 3h6l6-2-5-5-3-6-1-10 2-10 6-9 7-6h7l-2-7 1-13 3-8 8-9 5-2h8l-1-9 3-6 7-6 3-1h10l6 5v-7l7-8 2-1h13l8 5 2 1 3-5 5 1 4 6 2 6 10 5 5 5v5l-5 2h-5v3l3 1 2 3v7l-5 5-10 1 4 6 2 11-3 12-5 10-8 6h-4l5 7 1 4v13l-5 12-7 8-7 1 5 8 1 10-5 8-4 4-4 1 3 9 1 2v16l-4 10-8 9-4 2h-3l6 13-1 7-6 5-5 5-4 5-10 5 6 10 1 6-4 6-4 2h-9l-8-3-3 9-8 7-8 1-10-5-3-4v-2h-2l-2 5-2 2h-8l-4-6-5 6-6 2-10-5-8-9-8-14-12-35h-13l-7-4-3-4 1-8 6-7h2v-2l-7-1-7-9v-12l5-7-9-2-5-5-2-4 1-8 4-6 2-1-10-5-2-3v-9l7-7-9-8-6-10-3-10v-12l4-10 4-4-5-1-4-5v-9l7-6h11l1-8 8-7v-2l-6-5-1-2v-8l5-6h13l1-8 7-7z" fill="#8AD85F"/>
<path transform="translate(1346,11)" d="m0 0h11l8 5 4 6 8-6 9-3h15l12 5 6 7v5h11l8 4 1 8-5 4-5 1v3l4 1 4 8v9l-6 7-11 5-1 10-2 2v15l-5 7-6 3h-6v8h9l7 5 4 7 1 11-6 9 1 4v10l-5 8-5 3-5 1-1 7-5 6 2 5v8l-6 9-8 4h-6l-5-2-4 9-7 6-4 2h-12l-9-5-4-5-2-1-3 13-6 8-5 3h-6l-1 24-6 11-8 4h-5v6l-6 8-9 4h-14l-7-4-5-4-2 5-5 5h-7l-6-5-4-10v-14l-9-2-6-7-1-3v-9l4-7 5-3-9-3-1-5 2-9 8-1v-2l-4-2-5-6-3-7v-13l5-10 6-5h2v-2l-6-2-2-2v-7l6-3h2l-5-5-5-8-2-5 1-10 4-8 3-1-1-2-8-4-1-1v-5l5-4 6-2-6-8-1-2v-16l6-9 4-3h5l-2-5v-7l2-5 3-3 4-11 5-6 6-3v-13l5-5 2-1h7l6 5 2 2 6-8 7-4h13l9 6 2 4 5-5 5-4 9-1 8 4 4 4h2l4-6z" fill="#8AD85F"/>
<path transform="translate(1485,13)" d="m0 0h12l8 5 4 5 1 2 4-1h10l7 6 1 3v8l-1 3 8 2 5 5 4 8v10l-5 10-5 4h-2l5 5 4 5 2 5v10l-4 10-5 5 6 3 3 4-2 4-5 5 5 2 3 4v6l-5 5-5 1v2l5 1 7 8 3 10v4h13l9 3 9 9 5-5 10-5 3-1h13l11 4 7 8v7l10 2 6 4 2 3v8l-5 5-7 4 8 8-1 2-6 3-6 13-1 13h-1l-1-6-5 4-5 2h-3l3 6v8l-5 8-8 7h-15l-4 8-11 5h-10l-9-4-4-4-4 2-9 6-3 1h-15l-9-5-4-5-1-2-4 6-7 5-3 1h-14l-10-6-3-4v-2h-2v6l-4 5-5 1-7-5-6-12-3-11-2-32h-10l-6-3-1-2v-6l7-4-7-6-2-11 4-7 5-3h2l-3-3-5-4-2-6 2-7 8-7-5-4-3-6v-11l4-9 5-4-6-2-4-4v-7l5-6h3v-2l-5-2-5-6v-12l9-7 7-3-3-3v-13l10-16 3-3 9-2-3-10 2-10 4-6 5-4h9l3-9 7-6z" fill="#8AD85F"/>
<path transform="translate(287,67)" d="m0 0h2v22l4 8 7 4v2l-8 6-2 3v9l2 4 10 5-1 2-10 3-3 4 1 6 5 3 6 3-5 5-3 4-1 9 3 6 4 3 3 1-2 4-6 5-3 8v7l3 9 5 4 8 4 3 22 4 12 4 6 5 4 2 1h8l5-3 3-4h2l4 8 5 4 3 1h10l6-3 3-1 2-5 2-4h2l6 8 4 2h8l6-3 4-7h3l5 8 8 4h8l10-5 4-6 4 4 3 5 2 1h9l8-7 3 1 2 9-2 10-6 8-4 3-9 1-3-1 1 7-6 9-5 2h-7l-7-6-1-4-8 8-8 3h-8l-8-4-8-7-2 5-7 4h-9l-6-4-4-4-1-3-2 5-5 6-9 3-10-1-8-6-4-5-6 5-2 1h-7l-9-6-7-11-4-16-1-15-7-2-7-8-2-5v-10l3-8 6-7-6-5-2-4v-11l7-10-5-1-5-5 1-8 5-5 3-2-5-4-3-6 1-9 4-5 5-2v-2l-4-2-4-5-3-6v-13l5-10 6-4 3-1-2-4-1-1v-15l5-8z" fill="#24A568"/>
<path transform="translate(754,68)" d="m0 0 2 1 2 15 3 6 6 5v3l-10 5-1 2v6l4 4 6 3-1 3-10 5-1 2v7l4 5 10 3v2l-6 4-4 5-2 5v9l4 9 7 5-1 3-6 3h-2l1 7 6 4-3 3-5 4-2 6 11 3v3l-7 4-3 6v7l2 7 15 6 4 11 8 5 6 2h18l10-5 3-4h3l4 6 8 4 3 1h19l10-4 3-1 2-5 1-2h2l4 7 5 3h6l5-3 4-11 8 3h12l13-5 10-6 4-6 2-6 5 2 10 5-4 9-7 8-6 3h-3l5 7v9l-3 3h-6l-7-4h-2l-5 9-8 6-12 6-13 2-8-1-4-1-2 7-6 5h-10l-6-5-1-4h-2l-2 5-8 5-6 2h-18l-10-4-6-6-4 1-5 4-5 2h-22l-10-5-6-7-2-8-9-2-6-5-3-9 2-8 5-6-1-3-2-1 2-5 3-6-1-7-4-5 1-4 7-3v-2l-6-5-3-6v-15l4-8 6-2v-3l-6-1-7-6v-9l5-5 6-3-8-4-1-4v-7l3-4 5-2h3v-3l-5-2-6-12 1-16 5-8 7-4-1-4v-9l5-9z" fill="#24A568"/>
<path transform="translate(1439,72)" d="m0 0 3 2 4 9 9 4-1 3-9 5v6l5 4 7 2v2l-6 4-5 8v9l3 6 5 4 2 1v3l-9 5-2 2v7l4 6 7 3-4 4-6 4-2 3v8l3 6 8 3-1 3-9 4v5l16 4 1 4 2 23 3 14 5 12 1 3h10l5-9h2l4 6 4 3 3 1h16l8-5 4-6h2l6 8 7 3h15l7-3 5-6 1-2 3 1 3 5 8 4h13l8-4 6-9h19l-1 7-5 4-5 2h-3l3 6v8l-5 8-8 7h-15l-4 8-11 5h-10l-9-4-4-4-4 2-9 6-3 1h-15l-9-5-4-5-1-2-4 6-7 5-3 1h-14l-10-6-3-4v-2h-2v6l-4 5-5 1-7-5-6-12-3-11-2-32h-10l-6-3-1-2v-6l7-4-7-6-2-11 4-7 5-3h2l-3-3-5-4-2-6 2-7 8-7-5-4-3-6v-11l4-9 5-4-6-2-4-4v-7l5-6h3v-2l-5-2-5-6v-12l9-7 7-3-3-3v-13z" fill="#24A568"/>
<path transform="translate(1e3 68)" d="m0 0h3v22l5 8 6 3v2l-8 6-2 2v10l3 5 6 3-1 3-9 4-1 7 5 5 7 3-8 8-1 3v7l3 6 4 3 3 1-1 3-7 6-3 8v7l3 9 6 5 6 3 2 12 3 15 7 14 4 3 3 1h8l5-4 2-3h2l6 9 4 3 3 1h10l7-4 6-9h2l5 8 4 2h9l7-3 3-6 3 1 4 6 8 4h9l10-5 4-6 3 3 4 6 2 1h8l4-1v-2h2l2-4h3l3 10-1 5-4 9-8 7-4 1-7-1v8l-6 8-4 2-9-1-7-8-2-1-2 4-4 4-9 3-8-1-6-3-5-4-1-2h-2l-4 5-8 3-10-2-6-6v-4h-2l-1 6-8 7-9 2-6-1-7-4-5-6v-2h-2l-2 4-3 2h-11l-8-6-6-9-4-16v-17h-6l-7-5-4-8v-13l5-9 5-2-5-5-4-6v-11l5-7 1-3-5-2-4-8 1-4 10-7-4-8-6-4 6-7 5-8v-14l-3-10-5-6 1-6 6-5 3-1-4-8v-10l5-9z" fill="#23A568"/>
<path transform="translate(45,56)" d="m0 0h2v21l4 12 6 8 8 4-2 4-6 6v8l3 3 10 3-1 3-5 4-1 5v7l3 4 6 2 7 1-2 5-4 6v9l4 7 11 4-5 5-4 5v8l5 4 16 1 4 10 9 26 9 16 6 7 4 2h9l4-4 2-4 3 3 3 5 7-1 4-7 4 5 6 5h13l6-5 3-9 8 1 8 3-2 5-4 5-10 5 6 10 1 6-4 6-4 2h-9l-8-3-3 9-8 7-8 1-10-5-3-4v-2h-2l-2 5-2 2h-8l-4-6-5 6-6 2-10-5-8-9-8-14-12-35h-13l-7-4-3-4 1-8 6-7h2v-2l-7-1-7-9v-12l5-7-9-2-5-5-2-4 1-8 4-6 2-1-10-5-2-3v-9l7-7-9-8-6-10-3-10v-12l4-10 4-4-5-1-4-5v-9l7-6h11l1-8z" fill="#24A568"/>
<path transform="translate(1884,222)" d="m0 0h16l-1 5-2 5 1 4 9-1 7-2 1 1 2 9 6 7 12 6 9 1 9-3 2 7 4 8 3 2h6l5-4 4-8 2 1 1 6 17 6v10l-7 10-3 10-8 8-3 1h-7l-8-5-4-4-2 5-4 5-2 1h-6l-6-4-4-8-1-5-5 2h-8l-10-3-11-8-4-7-1-6-6 3h-9l-3-3 1-7 3-5-14 1-9 16-6 7-9 5h-11v7l-6 8-5 3h-10l-8-6-2-4-2-1-2 5-8 5-3 1h-7l-9-4-5-4-3 6h-4l-1-2v-8l3-11v-8l-5-7v-10l5-5 3-1h7l-2-4v-15l5-9h2l6 10 2 2-1 9-2 8-1 11h2l3-9 7 6 3 2h15l6-3 4-6 3 1 4 6 5 3h10l5-3 3-4 2-9 1-1 12-1 9-6 7-10 4-10z" fill="#24A568"/>
<path transform="translate(1226,58)" d="m0 0h3l5 13 7 6-2 2-12 3 1 6 10 3-2 4-6 8v14l4 8 6 4-4 4-4 2v6l8 4v2l-7 4-5 8v18l4 8 3 3 7 3-2 2-9 3-3 3 1 5 6 3 5 1-2 4-5 5-1 2v12l2 5 10 3 2 6 2 12 5 9 5 2 5-2 4-5 3-3 7 6 3 1h15l11-5h3v14l-6 11-8 4h-5v6l-6 8-9 4h-14l-7-4-5-4-2 5-5 5h-7l-6-5-4-10v-14l-9-2-6-7-1-3v-9l4-7 5-3-9-3-1-5 2-9 8-1v-2l-4-2-5-6-3-7v-13l5-10 6-5h2v-2l-6-2-2-2v-7l6-3h2l-5-5-5-8-2-5 1-10 4-8 3-1-1-2-8-4-1-1v-5l5-4 6-2-6-8-1-2v-16l6-9 4-3h5l-2-5v-7l2-5z" fill="#24A568"/>
<path transform="translate(513,60)" d="m0 0 6 1-1 4-5 2v5l5 4 5 3-2 2-8 4v4l9 3-4 4-3 2-1 7 5 3 5 2-1 3-8 7-1 2v14l3 6 5 4 4 1-2 4-6 7-3 13v8l3 13 4 7 5 2v2l-13 4-1 8 7 3 9 3 5 25 7 13 9 7 5 2h14l8-5 3-6 6 1 4 6v9l-5 6-7 3 3 6-2 7-3 3h-9l-5-3-3 8-8 6-3 1h-12l-11-6-7-7-7-14-2-8v-14l-12-2-7-6 1-7 12-5-7-11-1-2v-25l4-10 6-7-6-2-4-5-2-4v-14l5-8 6-2v-2l-6-1-5-3-1-9 3-3h2v-3l-5-2-1-6 5-4 1-2-5-2-1-8 5-4h3l-6-6v-10l5-5 3-1h7l-3-6v-7l4-6z" fill="#24A568"/>
<path transform="translate(1652,68)" d="m0 0 11 1 3 2-5 6-4 10-1 9 3 16 2 7 7 2v2l-13 4-3 5 1 6 1 3 11 3v4l-5 5-4 10v15l3 10 6 7 2 1-2 4-7 6-3 8v17l3 10 3 5 10 6 4 9v2l4 2 9 3h12l10-4 5-6 3-4 7 3h11l-1 7-3 6-4 5-6 2 1 2v9l-7 8-4 2h-9l-5-3-3 6-7 6-13 3-10-1-9-5-5-6-1-7-7-2-7-8-3-8v-19l7-14 6-3-6-7-2-3 11-6 1-2v-8l-5-5-10-4 1-7 5-8h2l-3-3-8-5-1-1-1-9 5-5 4-3 3-1-7-14v-22l4-10 3-5-6-1-6-5 1-7 9-5h9l-2-3v-12z" fill="#24A568"/>
<path transform="translate(610,197)" d="m0 0 5 1 8 9 9 4 4 1-1 5v13l3 5 6 3 10 1 1 10 4 6 7 4h11l9-5 5 8 5 4 7 2 17 1 4 5 1 2v6l-6 8-4 9-5 5-9 5-4 1h-13l-12-5-5-5v-4l-10 5h-9l-8-4-7-8-1-2v-6l1-2-9 1-9-6-3-5-1-10 3-5v-2l-7-1-9-8 1-3 7-4 1-2v-9l-7-8v-2l6-4 3-13z" fill="#24A568"/>
<path transform="translate(1772,56)" d="m0 0 9 2 4 2 3 13 4 4 12 3-1 6v8l4 6 5 2 7 1-1 5-2 4v8l4 11 5 7 5 3-6 7-6 9-3 8v14h-10l-7-8-3-6-1-5v-9l3-8-9-1-7-8v-10l1-4-9-1-6-5-2-6v-6l2-4h-8l-3-7-2-2 1-6 6-5h2v-10l3-7 4-4z" fill="#24A568"/>
<path transform="translate(868,83)" d="m0 0 4 2 7 4 10 1 2 5 4 2v12l7 2-4 10 1 7 7 7-5 6-3 6v11l4 9v3l-9 4-6 10-3 9h-7l-1-4 4-10 6-7-5-1-3-4-1-9 4-8-7-2v-12l-4-2-2-4-11-1-6-4-1-1-1-16-3-8-4-5v-2l10-2 1-3 10-1z" fill="#23A568"/>
<path transform="translate(1390,179)" d="m0 0 10 3v8l-5 6 2 5v8l-6 9-8 4h-6l-5-2-4 9-7 6-4 2h-12l-9-5-4-5-2-1v2h-2l-4-11-5-6-4-4 12-6 17-9h2l2-5 2-3 4 2 4 6 9 4h8l8-4 4-5z" fill="#24A568"/>
<path transform="translate(1398,84)" d="m0 0 8 8 9 1 2 3v11l-5 7-6 3h-6v9l-4-1-4-6-8-4h-14l-11 6-3 2-4-6h-6l-7 7-7-11-2-8v-5l7-6 3-3 3-6 5 4 6 2h14l9-4 1-2h2l4 7h9z" fill="#23A568"/>
<path transform="translate(848,123)" d="m0 0 4 2 5 3 11 1 4 6 2 1v12l7 2-2 5-1 9 3 6 5 2-2 4h-2l-2 5-3 8-2 5-6 5h-2l-2-4-6-1-2 6-3-3-1-2h-7l-4-3 1-3 6-4 1-1v-9l-7-6 2-5 3-5 1-12-3-10-4-5 2-4z" fill="#FEFEFE"/>
<path transform="translate(1136,167)" d="m0 0 4 1 6 4 7 2h14l10-2 5-2h3l2 5v15l-5 7-7-5-7 1-4 5-2 4-4-2-9-4-4-1h-13l-12 5-4 2-6-9-5-6-1-6 7-10 11 3 9-2z" fill="#23A568"/>
<path transform="translate(420,167)" d="m0 0 4 1 7 4 8 2h11l11-2 5-2h3l2 4v17l-4 6-4-2-5-3h-5l-4 5-2 4-5-1-11-5h-15l-10 4-4 3h-2l-5-8-5-5-1-8 7-10 10 3 6-1 6-4z" fill="#23A568"/>
<path transform="translate(1157,80)" d="m0 0 2 1 4 9h10l6-7 3 3 3 5h9l1 1v14l-9 3-5 7h-3l-4-7-5-2h-8l-4 2-4 7-9-6-3-1h-13l-8 3h-3l-5-10-2-2 1-8 2-7 7 1 4 1h19l10-4z" fill="#23A568"/>
<path transform="translate(442,80)" d="m0 0 2 3 2 7h11l6-7 3 3 3 5h9l2 4v8l-2 3-7 3-6 6-4-1-3-5-4-2h-8l-5 3-3 6-4-2-8-5h-14l-10 4-6-11-2-2 1-7 2-8 8 1 4 1h19l11-4z" fill="#23A568"/>
<path transform="translate(735,121)" d="m0 0h2l5 11 4 2v3l-9 4-1 2v11l9 3-3 3-6 4h-2v11l6 5 6 2v3l-6 2-2 6-1 2v15l4 7 5 4-1 3-7 3-1 2h-7v-2l3-3 1-6-1-1h-14l2-5 1-2v-11l-7-13-9-6 7-11 5-9v-10l-1-6 8-3 6-10z" fill="#FEFEFE"/>
<path transform="translate(608,79)" d="m0 0 12 3h17l1 9 4 3 7 3v5l-4 5-6 13-1 3-31-1-4-8-4-3v-3l4-2v-7l-4-4 2-4z" fill="#23A569"/>
<path transform="translate(492,145)" d="m0 0 12 4v2l-7 4-3 6v14l5 8 6 3-2 4h-2l-2 5-3 8-1 23-3-1-5-5-2-4 1-7-3-6-3-2h-6l-5 3h-2l-1-7 4-6v-17l-1-4 2-6 8-3 6-3 4-5z" fill="#FEFEFE"/>
<path transform="translate(1206,152)" d="m0 0h2l6 12 5 4v2l-7 3v7l7 4v2l-6 4-5 8-1 3v13l5 10 6 5v2l-8 1-5-10-4-4 1-9-3-6-4-2-9 1-4 2-1-4 3-7 2-3v-15l-1-7 2-5 11-3 5-4z" fill="#FEFEFE"/>
<path transform="translate(166,85)" d="m0 0h9l8 7-2 2-8 4-3 7 1 10 3 6-10 4-3 4-5-2-3-4-2-8 1-12 5-10z" fill="#25A668"/>
<path transform="translate(1960,99)" d="m0 0 16 1 1 10-3 5-6 3h-6l-1-2-1-14z" fill="#24A568"/>
<path transform="translate(1976,77)" d="m0 0h13l3 3v8l-6 7-7 1-1-12-2-4z" fill="#27A768"/>
<path transform="translate(495,228)" d="m0 0 4 5 4 6v3l-11 4 2-17z" fill="#FEFEFE"/>
<path transform="translate(1960,123)" d="m0 0h1v10l-4 5h-7v-3l6-7z" fill="#25A668"/>
<path transform="translate(1637,227)" d="m0 0 7 6 3 4-4 2h-3l-4-11z" fill="#FEFEFE"/>
<path transform="translate(158,131)" d="m0 0 7 1-1 4-2 1h-7l-1-4z" fill="#26A668"/>
<path transform="translate(987,189)" d="m0 0h4l-1 4-5 5 1-7z" fill="#FEFEFE"/>
</svg>
